# 3ds Max Wavefront OBJ Exporter v0.97b - (c)2007 guruware
# File Created: 06.09.2016 20:20:29

mtllib crate.mtl

#
# object default
#

v  -1.0000 -1.0000 -1.0000
v  -1.0000 -1.0000 1.0000
v  -1.0000 1.0000 1.0000
v  -1.0000 1.0000 -1.0000
v  1.0000 -1.0000 -1.0000
v  1.0000 -1.0000 1.0000
v  1.0000 1.0000 -1.0000
v  1.0000 1.0000 1.0000
# 8 vertices

vn -1.0000 0.0000 -0.0000
vn 0.0000 -1.0000 -0.0000
vn 1.0000 0.0000 -0.0000
vn 0.0000 1.0000 -0.0000
vn 0.0000 0.0000 1.0000
vn 0.0000 0.0000 -1.0000
# 6 vertex normals

vt 1.0000 0.0000 0.0000
vt 1.0000 1.0000 0.0000
vt 0.0000 1.0000 0.0000
vt 0.0000 0.0000 0.0000
# 4 texture coords

g default
usemtl _crateMaterial_001
s off
f 1/1/1 2/2/1 3/3/1 4/4/1 
f 5/1/2 6/2/2 2/3/2 1/4/2 
f 7/1/3 8/2/3 6/3/3 5/4/3 
f 4/1/4 3/2/4 8/3/4 7/4/4 
f 2/1/5 6/2/5 8/3/5 3/4/5 
f 5/1/6 1/2/6 4/3/6 7/4/6 
# 6 polygons

