<?xml version="1.0" encoding="utf-8"?>
<!-- Generator: Adobe Illustrator 20.1.0, SVG Export Plug-In . SVG Version: 6.00 Build 0)  -->
<svg version="1.1" id="Layer_1" xmlns="http://www.w3.org/2000/svg" xmlns:xlink="http://www.w3.org/1999/xlink" x="0px" y="0px"
	 viewBox="0 0 507 507" style="enable-background:new 0 0 507 507;" xml:space="preserve">
<path d="M253.5,124.7c48.2,0,96.3,0.1,144.5-0.1c7.3,0,11.7,2.5,14.8,9.2c5.3,11.5,11.3,22.6,16.8,34c1.2,2.6,2,5.7,2,8.6
	c0.1,64.5,0.1,129,0.1,193.5c0,8.9-3.5,12.4-12.4,12.4c-41.2,0-82.3,0-123.5,0c-7.6,0-10.4-2.1-12.9-9.3
	c-4.1-12.1-8.1-24.3-12.2-36.5c-3-9-9.5-14-17.4-13.9c-7.9,0.2-14,5.1-16.9,13.8c-4.1,12.1-8.1,24.3-12.2,36.5
	c-2.4,7.2-5.3,9.3-12.9,9.3c-41.2,0-82.3,0-123.5,0c-9,0-12.5-3.5-12.5-12.4c0-64.5,0-129,0.1-193.5c0-2.9,0.8-6,2-8.6
	c5.5-11.4,11.5-22.5,16.8-34c3.1-6.7,7.5-9.3,14.8-9.3C157.2,124.8,205.3,124.7,253.5,124.7z M95.4,184.7c0,59.5,0,118.5,0,177.3
	c0.6,0.3,0.7,0.4,0.9,0.4c35.8,0,71.6,0.1,107.5,0c1.3,0,3.4-1.8,3.9-3.2c3.4-9.5,6.5-19.2,9.8-28.8c5.8-17,19.3-27.3,35.9-27.3
	c16.7-0.1,30.3,10.2,36.1,27.1c3.2,9.3,6.4,18.6,9.2,28c1.1,3.5,2.7,4.5,6.3,4.5c34-0.1,68-0.1,102-0.1c1.6,0,3.2-0.1,4.7-0.2
	c0-59.5,0-118.4,0-177.7C306.2,184.7,201,184.7,95.4,184.7z M101.2,164.3c101.7,0,202.7,0,304.4,0c-2.6-5.2-5.2-10-7.3-15
	c-1.6-3.7-3.7-4.9-7.9-4.9c-91.3,0.1-182.6,0.1-273.9,0.1c-1.2,0-2.4-0.2-3.5,0.1c-1,0.2-2.3,0.8-2.7,1.6
	C107.3,152,104.4,158,101.2,164.3z"/>
<path d="M211.7,260.3c0,22.1-17.7,39.8-39.6,39.7c-21.7-0.1-39.4-17.9-39.5-39.5c-0.1-21.8,18.2-40,39.7-39.8
	C194.1,220.9,211.7,238.6,211.7,260.3z M192,260.2c-0.1-10.9-9-19.7-19.8-19.6c-10.8,0.1-19.7,9.1-19.7,19.8
	c0,10.7,9,19.8,19.6,19.9C183,280.4,192.1,271.2,192,260.2z"/>
<path d="M329.6,300c-23.1-1.2-39.4-19.3-38.3-42.4c1-20.6,20.1-38,40.5-36.8c22.4,1.3,39.4,19.4,38.5,41
	C369.4,283.5,350.7,301.1,329.6,300z M350.5,260.3c-0.1-10.7-9.1-19.7-19.8-19.7c-10.8,0-19.6,8.8-19.7,19.7
	c0,10.9,8.7,19.8,19.5,20C341.3,280.5,350.5,271.2,350.5,260.3z"/>
</svg>
