<?xml version="1.0" encoding="utf-8"?>
<!-- Generator: Adobe Illustrator 20.1.0, SVG Export Plug-In . SVG Version: 6.00 Build 0)  -->
<svg version="1.1" xmlns="http://www.w3.org/2000/svg" xmlns:xlink="http://www.w3.org/1999/xlink" x="0px" y="0px"
	 viewBox="0 0 1200 1200" style="enable-background:new 0 0 1200 1200;" xml:space="preserve">
<style type="text/css">
	.st0{fill:#79C0F2;}
	.st1{fill:#394EFF;}
	.st2{fill:#434C59;}
	.st3{fill:#EDF2F6;}
</style>
<g id="Layer_1">
	<g>
		<g>
			<path class="st0" d="M2286.1,377.6l-107.3-107.3c1-4.8,1.6-9.7,1.6-14.7c0-38.6-31.3-69.9-69.9-69.9c-38.6,0-69.9,31.3-69.9,69.9
				c0,38.6,31.3,69.9,69.9,69.9c5.3,0,10.4-0.6,15.4-1.7l107,107c32.6,32.6,32.6,87.1,0,119.7l-40.3,40.3
				c-32.6,32.6-86.9,32.8-119.4,0.2l-126.1-126.1l0,0c-6.4-6.3-15.8-10.5-26.1-10.5c-20.8,0-38.3,17-38.3,37.8
				c0,10.3,4.2,19.8,10.2,26.6l0.1,0.1l126.6,125.7c32.6,32.6,32.4,86.5-0.2,119l-37.4,37.6c-32.6,32.6-87,32.6-119.6,0l-117-117.1
				c-6.8-7-16.4-11.5-27-11.5c-20.8,0-37.6,16.8-37.6,37.6c0,10.4,4.2,19.8,11,26.6l0,0l117.9,117.9c62.5,62.5,164,62.9,226.5,0.4
				l38.3-38.3c33.2-33.2,46.1-88.2,33.5-136.7c48.5,12.6,102.9-0.9,136.1-34.1l42.2-42.4C2348.7,541.2,2348.6,440.1,2286.1,377.6z"
				/>
		</g>
		<g>
			<path class="st0" d="M1897.8,734.4c6.3,5.5,16.4,9.5,26.9,9.5c20.8,0,37.7-17.8,37.6-38.6c0-10.7-4.5-20.8-11.7-27.6
				l-115.9-116.1c-32.6-32.6-31.9-86.6,0.7-119.1l37.6-37.7c32.6-32.6,87.1-32.6,119.7,0l115.4,115.4l0,0c6.8,7.1,16.4,11.5,27,11.5
				c20.8,0,37.7-16.9,37.7-37.6c0-10.6-5-20.7-11.4-27l0,0L2046,351.5c-62.5-62.5-163.6-62.5-226.1,0l-38.3,38.3
				c-33.2,33.2-46.5,87.8-33.9,136.3c-48.5-12.6-103,0.7-136.3,33.9l-42.3,42.3c-62.5,62.5-62.5,163.5,0,226l103.7,103.7
				c-1.1,5-1.7,10.2-1.7,15.5c0,38.6,31.3,69.9,69.9,69.9c38.6,0,69.9-31.3,69.9-69.9c0-38.6-31.3-69.9-69.9-69.9
				c-5,0-9.9,0.5-14.6,1.5l-104.1-104.1c-32.6-32.6-32.6-87.1,0-119.7l40.3-40.3c32.6-32.6,86.4-31.3,119,1.3"/>
		</g>
	</g>
	<g>
		<g>
			<path class="st1" d="M958.1,377.6L850.8,270.3c1-4.8,1.6-9.7,1.6-14.7c0-38.6-31.3-69.9-69.9-69.9c-38.6,0-69.9,31.3-69.9,69.9
				c0,38.6,31.3,69.9,69.9,69.9c5.3,0,10.4-0.6,15.4-1.7l107,107c32.6,32.6,32.6,87.1,0,119.7l-40.3,40.3
				c-32.6,32.6-86.9,32.8-119.4,0.2L619.1,464.9l0,0c-6.4-6.3-15.8-10.5-26.1-10.5c-20.8,0-38.3,17-38.3,37.8
				c0,10.3,4.2,19.8,10.2,26.6l0.1,0.1l126.6,125.7c32.6,32.6,32.4,86.5-0.2,119l-37.4,37.6c-32.6,32.6-87,32.6-119.6,0l-117-117.1
				c-6.8-7-16.4-11.5-27-11.5c-20.8,0-37.6,16.8-37.6,37.6c0,10.4,4.2,19.8,11,26.6l0,0l117.9,117.9c62.5,62.5,164,62.9,226.5,0.4
				l38.3-38.3c33.2-33.2,46.1-88.2,33.5-136.7c48.5,12.6,102.9-0.9,136.1-34.1l42.2-42.4C1020.7,541.2,1020.6,440.1,958.1,377.6z"/>
		</g>
		<g>
			<path class="st1" d="M569.8,734.4c6.3,5.5,16.4,9.5,26.9,9.5c20.8,0,37.7-17.8,37.6-38.6c0-10.7-4.5-20.8-11.7-27.6L506.9,561.5
				C474.3,529,475,475,507.5,442.4l37.6-37.7c32.6-32.6,87.1-32.6,119.7,0l115.4,115.4l0,0c6.8,7.1,16.4,11.5,27,11.5
				c20.8,0,37.7-16.9,37.7-37.6c0-10.6-5-20.7-11.4-27l0,0L718,351.5c-62.5-62.5-163.6-62.5-226.1,0l-38.3,38.3
				c-33.2,33.2-46.5,87.8-33.9,136.3c-48.5-12.6-103,0.7-136.3,33.9l-42.3,42.3c-62.5,62.5-62.5,163.5,0,226l103.7,103.7
				c-1.1,5-1.7,10.2-1.7,15.5c0,38.6,31.3,69.9,69.9,69.9c38.6,0,69.9-31.3,69.9-69.9c0-38.6-31.3-69.9-69.9-69.9
				c-5,0-9.9,0.5-14.6,1.5L294.4,775.1c-32.6-32.6-32.6-87.1,0-119.7l40.3-40.3c32.6-32.6,86.4-31.3,119,1.3"/>
		</g>
	</g>
	<g>
		<g>
			<path class="st2" d="M2286.1,2927.4l-107.3-107.3c1-4.8,1.6-9.7,1.6-14.7c0-38.6-31.3-69.9-69.9-69.9
				c-38.6,0-69.9,31.3-69.9,69.9c0,38.6,31.3,69.9,69.9,69.9c5.3,0,10.4-0.6,15.4-1.7l107,107c32.6,32.6,32.6,87.1,0,119.7
				l-40.3,40.3c-32.6,32.6-86.9,32.8-119.4,0.2l-126.1-126.1l0,0c-6.4-6.3-15.8-10.5-26.1-10.5c-20.8,0-38.3,17-38.3,37.8
				c0,10.3,4.2,19.8,10.2,26.6l0.1,0.1l126.6,125.7c32.6,32.6,32.4,86.5-0.2,119l-37.4,37.6c-32.6,32.6-87,32.6-119.6,0l-117-117.1
				c-6.8-7-16.4-11.5-27-11.5c-20.8,0-37.6,16.8-37.6,37.6c0,10.4,4.2,19.8,11,26.6l0,0l117.9,117.9c62.5,62.5,164,62.9,226.5,0.4
				l38.3-38.3c33.2-33.2,46.1-88.2,33.5-136.7c48.5,12.6,102.9-0.9,136.1-34.1l42.2-42.4C2348.7,3091.1,2348.6,2989.9,2286.1,2927.4
				z"/>
		</g>
		<g>
			<path class="st2" d="M1897.8,3284.3c6.3,5.5,16.4,9.5,26.9,9.5c20.8,0,37.7-17.8,37.6-38.6c0-10.7-4.5-20.8-11.7-27.6
				l-115.9-116.1c-32.6-32.6-31.9-86.6,0.7-119.1l37.6-37.7c32.6-32.6,87.1-32.6,119.7,0l115.4,115.4l0,0c6.8,7.1,16.4,11.5,27,11.5
				c20.8,0,37.7-16.9,37.7-37.6c0-10.6-5-20.7-11.4-27l0,0L2046,2901.3c-62.5-62.5-163.6-62.5-226.1,0l-38.3,38.3
				c-33.2,33.2-46.5,87.8-33.9,136.3c-48.5-12.6-103,0.7-136.3,33.9l-42.3,42.3c-62.5,62.5-62.5,163.5,0,226l103.7,103.7
				c-1.1,5-1.7,10.2-1.7,15.5c0,38.6,31.3,69.9,69.9,69.9c38.6,0,69.9-31.3,69.9-69.9c0-38.6-31.3-69.9-69.9-69.9
				c-5,0-9.9,0.5-14.6,1.5L1622.4,3325c-32.6-32.6-32.6-87.1,0-119.7l40.3-40.3c32.6-32.6,86.4-31.3,119,1.3"/>
		</g>
	</g>
	<g>
		<g>
			<path class="st3" d="M2286.1,4223.4l-107.3-107.3c1-4.8,1.6-9.7,1.6-14.7c0-38.6-31.3-69.9-69.9-69.9
				c-38.6,0-69.9,31.3-69.9,69.9c0,38.6,31.3,69.9,69.9,69.9c5.3,0,10.4-0.6,15.4-1.7l107,107c32.6,32.6,32.6,87.1,0,119.7
				l-40.3,40.3c-32.6,32.6-86.9,32.8-119.4,0.2l-126.1-126.1l0,0c-6.4-6.3-15.8-10.5-26.1-10.5c-20.8,0-38.3,17-38.3,37.8
				c0,10.3,4.2,19.8,10.2,26.6l0.1,0.1l126.6,125.7c32.6,32.6,32.4,86.5-0.2,119l-37.4,37.6c-32.6,32.6-87,32.6-119.6,0l-117-117.1
				c-6.8-7-16.4-11.5-27-11.5c-20.8,0-37.6,16.8-37.6,37.6c0,10.4,4.2,19.8,11,26.6l0,0l117.9,117.9c62.5,62.5,164,62.9,226.5,0.4
				l38.3-38.3c33.2-33.2,46.1-88.2,33.5-136.7c48.5,12.6,102.9-0.9,136.1-34.1l42.2-42.4C2348.7,4387.1,2348.6,4285.9,2286.1,4223.4
				z"/>
		</g>
		<g>
			<path class="st3" d="M1897.8,4580.3c6.3,5.5,16.4,9.5,26.9,9.5c20.8,0,37.7-17.8,37.6-38.6c0-10.7-4.5-20.8-11.7-27.6
				l-115.9-116.1c-32.6-32.6-31.9-86.6,0.7-119.1l37.6-37.7c32.6-32.6,87.1-32.6,119.7,0l115.4,115.4l0,0c6.8,7.1,16.4,11.5,27,11.5
				c20.8,0,37.7-16.9,37.7-37.6c0-10.6-5-20.7-11.4-27l0,0L2046,4197.3c-62.5-62.5-163.6-62.5-226.1,0l-38.3,38.3
				c-33.2,33.2-46.5,87.8-33.9,136.3c-48.5-12.6-103,0.7-136.3,33.9l-42.3,42.3c-62.5,62.5-62.5,163.5,0,226l103.7,103.7
				c-1.1,5-1.7,10.2-1.7,15.5c0,38.6,31.3,69.9,69.9,69.9c38.6,0,69.9-31.3,69.9-69.9s-31.3-69.9-69.9-69.9c-5,0-9.9,0.5-14.6,1.5
				L1622.4,4621c-32.6-32.6-32.6-87.1,0-119.7l40.3-40.3c32.6-32.6,86.4-31.3,119,1.3"/>
		</g>
	</g>
	<g>
		<g>
			<path d="M6361.1,377.4l-107.3-107.3c1-4.8,1.6-9.7,1.6-14.7c0-38.6-31.3-69.9-69.9-69.9c-38.6,0-69.9,31.3-69.9,69.9
				c0,38.6,31.3,69.9,69.9,69.9c5.3,0,10.4-0.6,15.4-1.7l107,107c32.6,32.6,32.6,87.1,0,119.7l-40.3,40.3
				c-32.6,32.6-86.9,32.8-119.4,0.2l-126.1-126.1l0,0c-6.4-6.3-15.8-10.5-26.1-10.5c-20.8,0-38.3,17-38.3,37.8
				c0,10.3,4.2,19.8,10.2,26.6l0.1,0.1l126.6,125.7c32.6,32.6,32.4,86.5-0.2,119l-37.4,37.6c-32.6,32.6-87,32.6-119.6,0l-117-117.1
				c-6.8-7-16.4-11.5-27-11.5c-20.8,0-37.6,16.8-37.6,37.6c0,10.4,4.2,19.8,11,26.6l0,0l117.9,117.9c62.5,62.5,164,62.9,226.5,0.4
				l38.3-38.3c33.2-33.2,46.1-88.2,33.5-136.7c48.5,12.6,102.9-0.9,136.1-34.1l42.2-42.4C6423.7,541.1,6423.6,439.9,6361.1,377.4z"
				/>
		</g>
		<g>
			<path d="M5972.8,734.3c6.3,5.5,16.4,9.5,26.9,9.5c20.8,0,37.7-17.8,37.6-38.6c0-10.7-4.5-20.8-11.7-27.6l-115.9-116.1
				c-32.6-32.6-31.9-86.6,0.7-119.1l37.6-37.7c32.6-32.6,87.1-32.6,119.7,0l115.4,115.4l0,0c6.8,7.1,16.4,11.5,27,11.5
				c20.8,0,37.7-16.9,37.7-37.6c0-10.6-5-20.7-11.4-27l0,0L6121,351.3c-62.5-62.5-163.6-62.5-226.1,0l-38.3,38.3
				c-33.2,33.2-46.5,87.8-33.9,136.3c-48.5-12.6-103,0.7-136.3,33.9l-42.3,42.3c-62.5,62.5-62.5,163.5,0,226l103.7,103.7
				c-1.1,5-1.7,10.2-1.7,15.5c0,38.6,31.3,69.9,69.9,69.9c38.6,0,69.9-31.3,69.9-69.9c0-38.6-31.3-69.9-69.9-69.9
				c-5,0-9.9,0.5-14.6,1.5L5697.4,775c-32.6-32.6-32.6-87.1,0-119.7l40.3-40.3c32.6-32.6,86.4-31.3,119,1.3"/>
		</g>
	</g>
	<g>
		<path class="st2" d="M4072.1,1548.3c0-37.6-30.5-68.2-68.1-68.2c-37.6,0-68.1,30.5-68.1,68.2c0,37.6,30.5,68.1,68.1,68.1
			C4041.6,1616.5,4072.1,1585.9,4072.1,1548.3z"/>
		<path class="st2" d="M2454.6,1691.9c-23.6,0-42.6,19.1-42.6,42.6c0,0.1,0,0.5,0,0.5h0l-0.2,239h-136.4
			c-52.2,0-95.4-57.3-95.4-109.5V1735h-0.5c0,0,0-0.4,0-0.5c0-23.4-19-42.5-42.5-42.5c-23.5,0-42.4,19.1-42.4,42.6
			c0,0.1,0,0.4,0,0.4h0.4v129.5c0,100.2,81.2,197.5,180.4,197.5h136.4l0.2,14.7c0,52.2-43.6,106.4-95.8,106.4l-184.2,0.4v0.1
			c-22,0.9-40.5,19.6-40.5,42.6c0,22.9,18.5,41.7,40.5,42.5v0.1l184.6-0.5c100.1,0,181.4-91.6,181.4-191.8V1735h-0.8
			c0,0,0-0.4,0-0.5C2497.2,1711.1,2478.1,1691.9,2454.6,1691.9z"/>
		<path class="st2" d="M3797.9,1692.9c-23.1,0-41.8,18.1-42.6,41.1h0.6v352.3c0,52.2-43.3,95.7-95.5,95.7h-25.6
			c-52.2,0-95.9-43.5-95.9-95.7V1734h0c-0.7-23-19.5-41.1-42.6-41.1c-23.1,0-41.8,18.1-42.6,41.1h0.2v352.3
			c0,52.2-40.8,95.7-94,95.7h-26.6c-52.2,0-95.3-43.5-95.3-95.7V1880h-0.7c-0.4-98-56.5-174.1-152.4-177.4c-1.3-0.1-2.7-0.3-4.1-0.3
			c-23.6,0-42.6,18.9-42.6,42.3c0,23.4,19.1,42.3,42.6,42.3c0,0,0.1,0,0.1,0v0.1c52,0,70.9,40.9,71.2,92.9h0.8v206.3
			c0,100.1,80.2,181.7,180.3,181.7h25.6c53.3,0,107.6-33.1,136.4-82.1c28.8,49,83.1,82.1,136.4,82.1h28.8
			c100.2,0,180.5-82.6,180.5-181.7V1734h-0.5C3839.8,1711,3821,1692.9,3797.9,1692.9z"/>
		<path class="st2" d="M4134,2183.9L4134,2183.9c-59,0-87-47.1-87-100V1731h-0.5c-1.8-21-20.1-39-42.5-39c-22.4,0-40.7,18-42.5,39
			h0.5v352.9c0,101.5,53.2,185.1,167.8,185.1h2.4c23.6,0,42.6-19.1,42.6-42.6C4174.9,2203.6,4157,2184.8,4134,2183.9z"/>
		<path class="st2" d="M4982,2183.5v0.5h-160.2c-52.2,0-95.8-44.2-95.8-96.4V2062h136.3c99.1,0,181.1-79.8,181.1-179.9
			c0-100.2-81-181.1-181.1-181.1h-40.5c-100.2,0-180.8,80.8-180.8,181v205.7c0,100.2,80.6,181.4,180.8,181.4H4982v-0.2
			c24-0.2,42.3-19.2,42.3-42.6C5024.3,2202.7,5006,2183.7,4982,2183.5z M4726,1880.6c0-52.2,43.6-95.6,95.8-95.6h40.5
			c52.2,0,95.9,43.8,95.9,96c0,52.3-43.7,95-95.9,95H4726V1880.6z"/>
		<path class="st2" d="M4552,1699.5c-0.4,0-1,0-1,0v0.5h-123c-100.2,0-181,80.5-181,180.6V2228h-0.1c1,23,19.6,40.7,42.6,40.7
			c22.9,0,41.6-17.7,42.6-40.7h1v-347.4c0-52.2,42.8-95.6,95-95.6h123v-0.6c0,0,0.6,0,1,0c23.5,0,42.6-19,42.6-42.5
			C4594.6,1718.5,4575.5,1699.5,4552,1699.5z"/>
		<path class="st2" d="M1993,2185.8v0.2h-203.1c-51.2,0-93.9-43-93.9-94.2v-86.7c0-51.1,41.7-94.1,92.8-94.1H1956v0
			c23-0.2,41.3-18.8,41.3-41.7c0-22.9-18.3-41.5-41.3-41.7v0.4h-167.2c-51.1,0-92.8-43.2-92.8-94.4v-49.1
			c0-51.2,42.7-93.5,93.9-93.5H1984c2.4,0,4.8,0.4,7.3,0.4c23.3,0,42.5-19,42.5-42.2c0-22.9-18.8-41.7-40.8-42.2v0h-203.1
			c-98.1,0-176.9,79.3-176.9,177.5v50.1c0,52.2,32.4,105.5,80.4,133.7c-48.1,28.2-80.4,81.5-80.4,133.7v89.8
			c0,98.2,78.8,178.2,176.9,178.2H1993v-0.7c23-0.3,41.5-18.9,41.5-41.8C2034.5,2204.7,2016,2186.2,1993,2185.8z"/>
		<path class="st2" d="M2829.7,2061c99.1,0,181.2-79.8,181.2-180c0-100.2-81-181-181.2-181h-40.5c-100.2,0-181.2,80.5-181.2,180.6
			v94.4v83.9v27.4c0,100.1,81,181.7,181.2,181.7H2932v-0.6c22-1,40.7-19.7,40.7-42.6c0-22.9-18.7-41.6-40.7-42.6v-0.2h-142.8
			c-52.2,0-95.2-43.5-95.2-95.7V2061H2829.7z M2694,1880.6c0-52.2,43-95.6,95.2-95.6h40.5c52.2,0,95.9,43.8,95.9,96
			c0,52.3-43.7,95-95.9,95H2694V1880.6z"/>
	</g>
	<g>
		<path class="st0" d="M8147.1,1548.3c0-37.6-30.5-68.2-68.1-68.2c-37.6,0-68.1,30.5-68.1,68.2c0,37.6,30.5,68.1,68.1,68.1
			C8116.6,1616.5,8147.1,1585.9,8147.1,1548.3z"/>
		<path class="st0" d="M6529.6,1691.9c-23.6,0-42.6,19.1-42.6,42.6c0,0.1,0,0.5,0,0.5h0l-0.2,239h-136.4
			c-52.2,0-95.4-57.3-95.4-109.5V1735h-0.5c0,0,0-0.4,0-0.5c0-23.4-19-42.5-42.5-42.5c-23.5,0-42.4,19.1-42.4,42.6
			c0,0.1,0,0.4,0,0.4h0.4v129.5c0,100.2,81.2,197.5,180.4,197.5h136.4l0.2,14.7c0,52.2-43.6,106.4-95.8,106.4l-184.2,0.4v0.1
			c-22,0.9-40.5,19.6-40.5,42.6c0,22.9,18.5,41.7,40.5,42.5v0.1l184.6-0.5c100.1,0,181.4-91.6,181.4-191.8V1735h-0.8
			c0,0,0-0.4,0-0.5C6572.2,1711.1,6553.1,1691.9,6529.6,1691.9z"/>
		<path class="st0" d="M7872.9,1692.9c-23.1,0-41.8,18.1-42.6,41.1h0.6v352.3c0,52.2-43.3,95.7-95.5,95.7h-25.6
			c-52.2,0-95.9-43.5-95.9-95.7V1734h0c-0.7-23-19.5-41.1-42.6-41.1c-23.1,0-41.8,18.1-42.6,41.1h0.2v352.3
			c0,52.2-40.8,95.7-94,95.7h-26.6c-52.2,0-95.3-43.5-95.3-95.7V1880h-0.7c-0.4-98-56.5-174.1-152.4-177.4c-1.3-0.1-2.7-0.3-4.1-0.3
			c-23.6,0-42.6,18.9-42.6,42.3c0,23.4,19.1,42.3,42.6,42.3h0.1v0.1c52,0,70.9,40.9,71.2,92.9h0.8v206.3
			c0,100.1,80.2,181.7,180.3,181.7h25.6c53.3,0,107.6-33.1,136.4-82.1c28.8,49,83.1,82.1,136.4,82.1h28.8
			c100.2,0,180.5-82.6,180.5-181.7V1734h-0.5C7914.8,1711,7896,1692.9,7872.9,1692.9z"/>
		<path class="st0" d="M8209,2183.9L8209,2183.9c-59,0-87-47.1-87-100V1731h-0.5c-1.8-21-20.1-39-42.5-39c-22.4,0-40.7,18-42.5,39
			h0.5v352.9c0,101.5,53.2,185.1,167.8,185.1h2.4c23.6,0,42.6-19.1,42.6-42.6C8249.9,2203.6,8232,2184.8,8209,2183.9z"/>
		<path class="st0" d="M9057,2183.5v0.5h-160.2c-52.2,0-95.8-44.2-95.8-96.4V2062h136.3c99.1,0,181.1-79.8,181.1-179.9
			c0-100.2-81-181.1-181.1-181.1h-40.5c-100.2,0-180.8,80.8-180.8,181v205.7c0,100.2,80.6,181.4,180.8,181.4H9057v-0.2
			c24-0.2,42.3-19.2,42.3-42.6C9099.3,2202.7,9081,2183.7,9057,2183.5z M8801,1880.6c0-52.2,43.6-95.6,95.8-95.6h40.5
			c52.2,0,95.9,43.8,95.9,96c0,52.3-43.7,95-95.9,95H8801V1880.6z"/>
		<path class="st0" d="M8627,1699.5c-0.4,0-1,0-1,0v0.5h-123c-100.2,0-181,80.5-181,180.6V2228h-0.1c1,23,19.6,40.7,42.6,40.7
			c22.9,0,41.6-17.7,42.6-40.7h1v-347.4c0-52.2,42.8-95.6,95-95.6h123v-0.6c0,0,0.6,0,1,0c23.5,0,42.6-19,42.6-42.5
			C8669.6,1718.5,8650.5,1699.5,8627,1699.5z"/>
		<path class="st0" d="M6068,2185.8v0.2h-203.1c-51.2,0-93.9-43-93.9-94.2v-86.7c0-51.1,41.7-94.1,92.8-94.1H6031v0
			c23-0.2,41.3-18.8,41.3-41.7c0-22.9-18.3-41.5-41.3-41.7v0.4h-167.2c-51.1,0-92.8-43.2-92.8-94.4v-49.1
			c0-51.2,42.7-93.5,93.9-93.5H6059c2.4,0,4.8,0.4,7.3,0.4c23.3,0,42.5-19,42.5-42.2c0-22.9-18.8-41.7-40.8-42.2v0h-203.1
			c-98.1,0-176.9,79.3-176.9,177.5v50.1c0,52.2,32.4,105.5,80.4,133.7c-48.1,28.2-80.4,81.5-80.4,133.7v89.8
			c0,98.2,78.8,178.2,176.9,178.2H6068v-0.7c23-0.3,41.5-18.9,41.5-41.8C6109.5,2204.7,6091,2186.2,6068,2185.8z"/>
		<path class="st0" d="M6904.7,2061c99.1,0,181.2-79.8,181.2-180c0-100.2-81-181-181.2-181h-40.5c-100.2,0-181.2,80.5-181.2,180.6
			v94.4v83.9v27.4c0,100.1,81,181.7,181.2,181.7H7007v-0.6c22-1,40.7-19.7,40.7-42.6c0-22.9-18.7-41.6-40.7-42.6v-0.2h-142.8
			c-52.2,0-95.2-43.5-95.2-95.7V2061H6904.7z M6769,1880.6c0-52.2,43-95.6,95.2-95.6h40.5c52.2,0,95.9,43.8,95.9,96
			c0,52.3-43.7,95-95.9,95H6769V1880.6z"/>
	</g>
	<g>
		<path d="M8147.1,2823.3c0-37.6-30.5-68.2-68.1-68.2c-37.6,0-68.1,30.5-68.1,68.2c0,37.6,30.5,68.1,68.1,68.1
			C8116.6,2891.5,8147.1,2860.9,8147.1,2823.3z"/>
		<path d="M6529.6,2966.9c-23.6,0-42.6,19.1-42.6,42.6c0,0.1,0,0.5,0,0.5h0l-0.2,239h-136.4c-52.2,0-95.4-57.3-95.4-109.5V3010h-0.5
			c0,0,0-0.4,0-0.5c0-23.4-19-42.5-42.5-42.5c-23.5,0-42.4,19.1-42.4,42.6c0,0.1,0,0.4,0,0.4h0.4v129.5
			c0,100.2,81.2,197.5,180.4,197.5h136.4l0.2,14.7c0,52.2-43.6,106.4-95.8,106.4l-184.2,0.4v0.1c-22,0.9-40.5,19.6-40.5,42.6
			c0,22.9,18.5,41.7,40.5,42.5v0.1l184.6-0.5c100.1,0,181.4-91.6,181.4-191.8V3010h-0.8c0,0,0-0.4,0-0.5
			C6572.2,2986.1,6553.1,2966.9,6529.6,2966.9z"/>
		<path d="M7872.9,2967.9c-23.1,0-41.8,18.1-42.6,41.1h0.6v352.3c0,52.2-43.3,95.7-95.5,95.7h-25.6c-52.2,0-95.9-43.5-95.9-95.7
			V3009h0c-0.7-23-19.5-41.1-42.6-41.1c-23.1,0-41.8,18.1-42.6,41.1h0.2v352.3c0,52.2-40.8,95.7-94,95.7h-26.6
			c-52.2,0-95.3-43.5-95.3-95.7V3155h-0.7c-0.4-98-56.5-174.1-152.4-177.4c-1.3-0.1-2.7-0.3-4.1-0.3c-23.6,0-42.6,18.9-42.6,42.3
			s19.1,42.3,42.6,42.3h0.1v0.1c52,0,70.9,40.9,71.2,92.9h0.8v206.3c0,100.1,80.2,181.7,180.3,181.7h25.6
			c53.3,0,107.6-33.1,136.4-82.1c28.8,49,83.1,82.1,136.4,82.1h28.8c100.2,0,180.5-82.6,180.5-181.7V3009h-0.5
			C7914.8,2986,7896,2967.9,7872.9,2967.9z"/>
		<path d="M8209,3458.9L8209,3458.9c-59,0-87-47.1-87-100V3006h-0.5c-1.8-21-20.1-39-42.5-39c-22.4,0-40.7,18-42.5,39h0.5v352.9
			c0,101.5,53.2,185.1,167.8,185.1h2.4c23.6,0,42.6-19.1,42.6-42.6C8249.9,3478.6,8232,3459.8,8209,3458.9z"/>
		<path d="M9057,3458.5v0.5h-160.2c-52.2,0-95.8-44.2-95.8-96.4V3337h136.3c99.1,0,181.1-79.8,181.1-179.9
			c0-100.2-81-181.1-181.1-181.1h-40.5c-100.2,0-180.8,80.8-180.8,181v205.7c0,100.2,80.6,181.4,180.8,181.4H9057v-0.2
			c24-0.2,42.3-19.2,42.3-42.6C9099.3,3477.7,9081,3458.7,9057,3458.5z M8801,3155.6c0-52.2,43.6-95.6,95.8-95.6h40.5
			c52.2,0,95.9,43.8,95.9,96c0,52.3-43.7,95-95.9,95H8801V3155.6z"/>
		<path d="M8627,2974.5c-0.4,0-1,0-1,0v0.5h-123c-100.2,0-181,80.5-181,180.6V3503h-0.1c1,23,19.6,40.7,42.6,40.7
			c22.9,0,41.6-17.7,42.6-40.7h1v-347.4c0-52.2,42.8-95.6,95-95.6h123v-0.6c0,0,0.6,0,1,0c23.5,0,42.6-19,42.6-42.5
			C8669.6,2993.5,8650.5,2974.5,8627,2974.5z"/>
		<path d="M6068,3460.8v0.2h-203.1c-51.2,0-93.9-43-93.9-94.2v-86.7c0-51.1,41.7-94.1,92.8-94.1H6031v0c23-0.2,41.3-18.8,41.3-41.7
			c0-22.9-18.3-41.5-41.3-41.7v0.4h-167.2c-51.1,0-92.8-43.2-92.8-94.4v-49.1c0-51.2,42.7-93.5,93.9-93.5H6059
			c2.4,0,4.8,0.4,7.3,0.4c23.3,0,42.5-19,42.5-42.2c0-22.9-18.8-41.7-40.8-42.2v0h-203.1c-98.1,0-176.9,79.3-176.9,177.5v50.1
			c0,52.2,32.4,105.5,80.4,133.7c-48.1,28.2-80.4,81.5-80.4,133.7v89.8c0,98.2,78.8,178.2,176.9,178.2H6068v-0.7
			c23-0.3,41.5-18.9,41.5-41.8C6109.5,3479.7,6091,3461.2,6068,3460.8z"/>
		<path d="M6904.7,3336c99.1,0,181.2-79.8,181.2-180c0-100.2-81-181-181.2-181h-40.5c-100.2,0-181.2,80.5-181.2,180.6v94.4v83.9
			v27.4c0,100.1,81,181.7,181.2,181.7H7007v-0.6c22-1,40.7-19.7,40.7-42.6c0-22.9-18.7-41.6-40.7-42.6v-0.2h-142.8
			c-52.2,0-95.2-43.5-95.2-95.7V3336H6904.7z M6769,3155.6c0-52.2,43-95.6,95.2-95.6h40.5c52.2,0,95.9,43.8,95.9,96
			c0,52.3-43.7,95-95.9,95H6769V3155.6z"/>
	</g>
	<g>
		<path class="st3" d="M8147.1,4111.3c0-37.6-30.5-68.2-68.1-68.2c-37.6,0-68.1,30.5-68.1,68.2c0,37.6,30.5,68.1,68.1,68.1
			C8116.6,4179.5,8147.1,4148.9,8147.1,4111.3z"/>
		<path class="st3" d="M6529.6,4254.9c-23.6,0-42.6,19.1-42.6,42.6c0,0.1,0,0.5,0,0.5h0l-0.2,239h-136.4
			c-52.2,0-95.4-57.3-95.4-109.5V4298h-0.5c0,0,0-0.4,0-0.5c0-23.4-19-42.5-42.5-42.5c-23.5,0-42.4,19.1-42.4,42.6
			c0,0.1,0,0.4,0,0.4h0.4v129.5c0,100.2,81.2,197.5,180.4,197.5h136.4l0.2,14.7c0,52.2-43.6,106.4-95.8,106.4l-184.2,0.4v0.1
			c-22,0.9-40.5,19.6-40.5,42.6c0,22.9,18.5,41.7,40.5,42.5v0.1l184.6-0.5c100.1,0,181.4-91.6,181.4-191.8V4298h-0.8
			c0,0,0-0.4,0-0.5C6572.2,4274.1,6553.1,4254.9,6529.6,4254.9z"/>
		<path class="st3" d="M7872.9,4255.9c-23.1,0-41.8,18.1-42.6,41.1h0.6v352.3c0,52.2-43.3,95.7-95.5,95.7h-25.6
			c-52.2,0-95.9-43.5-95.9-95.7V4297h0c-0.7-23-19.5-41.1-42.6-41.1c-23.1,0-41.8,18.1-42.6,41.1h0.2v352.3
			c0,52.2-40.8,95.7-94,95.7h-26.6c-52.2,0-95.3-43.5-95.3-95.7V4443h-0.7c-0.4-98-56.5-174.1-152.4-177.4c-1.3-0.1-2.7-0.3-4.1-0.3
			c-23.6,0-42.6,18.9-42.6,42.3s19.1,42.3,42.6,42.3h0.1v0.1c52,0,70.9,40.9,71.2,92.9h0.8v206.3c0,100.1,80.2,181.7,180.3,181.7
			h25.6c53.3,0,107.6-33.1,136.4-82.1c28.8,49,83.1,82.1,136.4,82.1h28.8c100.2,0,180.5-82.6,180.5-181.7V4297h-0.5
			C7914.8,4274,7896,4255.9,7872.9,4255.9z"/>
		<path class="st3" d="M8209,4746.9L8209,4746.9c-59,0-87-47.1-87-100V4294h-0.5c-1.8-21-20.1-39-42.5-39c-22.4,0-40.7,18-42.5,39
			h0.5v352.9c0,101.5,53.2,185.1,167.8,185.1h2.4c23.6,0,42.6-19.1,42.6-42.6C8249.9,4766.6,8232,4747.8,8209,4746.9z"/>
		<path class="st3" d="M9057,4746.5v0.5h-160.2c-52.2,0-95.8-44.2-95.8-96.4V4625h136.3c99.1,0,181.1-79.8,181.1-179.9
			c0-100.2-81-181.1-181.1-181.1h-40.5c-100.2,0-180.8,80.8-180.8,181v205.7c0,100.2,80.6,181.4,180.8,181.4H9057v-0.2
			c24-0.2,42.3-19.2,42.3-42.6C9099.3,4765.7,9081,4746.7,9057,4746.5z M8801,4443.6c0-52.2,43.6-95.6,95.8-95.6h40.5
			c52.2,0,95.9,43.8,95.9,96c0,52.3-43.7,95-95.9,95H8801V4443.6z"/>
		<path class="st3" d="M8627,4262.5c-0.4,0-1,0-1,0v0.5h-123c-100.2,0-181,80.5-181,180.6V4791h-0.1c1,23,19.6,40.7,42.6,40.7
			c22.9,0,41.6-17.7,42.6-40.7h1v-347.4c0-52.2,42.8-95.6,95-95.6h123v-0.6c0,0,0.6,0,1,0c23.5,0,42.6-19,42.6-42.5
			C8669.6,4281.5,8650.5,4262.5,8627,4262.5z"/>
		<path class="st3" d="M6068,4748.8v0.2h-203.1c-51.2,0-93.9-43-93.9-94.2v-86.7c0-51.1,41.7-94.1,92.8-94.1H6031v0
			c23-0.2,41.3-18.8,41.3-41.7c0-22.9-18.3-41.5-41.3-41.7v0.4h-167.2c-51.1,0-92.8-43.2-92.8-94.4v-49.1
			c0-51.2,42.7-93.5,93.9-93.5H6059c2.4,0,4.8,0.4,7.3,0.4c23.3,0,42.5-19,42.5-42.2c0-22.9-18.8-41.7-40.8-42.2v0h-203.1
			c-98.1,0-176.9,79.3-176.9,177.5v50.1c0,52.2,32.4,105.5,80.4,133.7c-48.1,28.2-80.4,81.5-80.4,133.7v89.8
			c0,98.2,78.8,178.2,176.9,178.2H6068v-0.7c23-0.3,41.5-18.9,41.5-41.8C6109.5,4767.7,6091,4749.2,6068,4748.8z"/>
		<path class="st3" d="M6904.7,4624c99.1,0,181.2-79.8,181.2-180c0-100.2-81-181-181.2-181h-40.5c-100.2,0-181.2,80.5-181.2,180.6
			v94.4v83.9v27.4c0,100.1,81,181.7,181.2,181.7H7007v-0.6c22-1,40.7-19.7,40.7-42.6c0-22.9-18.7-41.6-40.7-42.6v-0.2h-142.8
			c-52.2,0-95.2-43.5-95.2-95.7V4624H6904.7z M6769,4443.6c0-52.2,43-95.6,95.2-95.6h40.5c52.2,0,95.9,43.8,95.9,96
			c0,52.3-43.7,95-95.9,95H6769V4443.6z"/>
	</g>
</g>
<g id="Layer_2">
</g>
</svg>
